<svg xmlns="http://www.w3.org/2000/svg" version="1.1" xmlns:xlink="http://www.w3.org/1999/xlink" xmlns:svgjs="http://svgjs.dev/svgjs" width="1000" height="623" viewBox="0 0 1000 623"><g transform="matrix(1,0,0,1,-0.6060606060606233,0.2522267206477409)"><svg viewBox="0 0 396 247" data-background-color="#ffffff" preserveAspectRatio="xMidYMid meet" height="623" width="1000" xmlns="http://www.w3.org/2000/svg" xmlns:xlink="http://www.w3.org/1999/xlink"><g id="tight-bounds" transform="matrix(1,0,0,1,0.2400000000000091,-0.09999999999999432)"><svg viewBox="0 0 395.52 247.2" height="247.2" width="395.52"><g><svg viewBox="0 0 395.52 247.2" height="247.2" width="395.52"><g transform="matrix(1,0,0,1,0,84.77469859620149)"><svg viewBox="0 0 395.52 77.65060280759702" height="77.65060280759702" width="395.52"><g><svg viewBox="0 0 395.52 77.65060280759702" height="77.65060280759702" width="395.52"><g><svg viewBox="0 0 395.52 77.65060280759702" height="77.65060280759702" width="395.52"><g><svg viewBox="0 0 395.52 77.65060280759702" height="77.65060280759702" width="395.52"><g id="textblocktransform"><svg viewBox="0 0 395.52 77.65060280759702" height="77.65060280759702" width="395.52" id="textblock"><g><svg viewBox="0 0 395.52 77.65060280759702" height="77.65060280759702" width="395.52"><g transform="matrix(1,0,0,1,0,0)"><svg width="395.52" viewBox="-2.5 -43 243.17999267578125 48.54999923706055" height="77.65060280759702" data-palette-color="#1ebbd7"><path d="M21.05-19.15L25.5-23.9 23.7-30.35 16.35-31.65 11.2-30.85 12.05-19.75 21.05-19.15ZM32.5-9.45L35.65-6.15 29.45-0.6 25.55-1.25 22.9-13 18.2-16.45 11.7-15.5 11.85-3.1 15-2.05 15.4-0.15 4.65-0.3 4.55-1.65 7.5-2.8 6.9-29.25 5.1-31.2 1.5-31.6 1.65-34.3 5.75-34.4 7.85-33.55 9.1-34.65 22.7-34.45 29-28.65 28.1-20.3 23.75-17 27.45-13.45 27.8-4.45 28.9-4.05 32.5-9.45ZM52.25-13.1L48-12.95 42.4-9.2 42.25-3.6 44.25-2.55Q45.25-2.6 46.1-2.65L46.1-2.65Q46.8-2.7 47.37-2.78 47.95-2.85 47.95-2.95L47.95-2.95Q47.95-2.95 48.15-3.25 48.35-3.55 48.67-4.03 49-4.5 49.4-5.08 49.8-5.65 50.25-6.25L50.25-6.25Q51.25-7.65 52.6-9.45L52.6-9.45 52.25-13.1ZM39.55-22.8L44.8-26.45 56.1-23.8 56.3-3.25 60.55-2.95 60.6-0.65 54.4-0.05 52.3-4.45 49.7-0.35 41.25 1.25 38.15-2.5 38.35-10.1 46.9-15.65 52.2-16.35 52.6-21.8 44.25-22.9 41.8-18.65 39.05-21.55 39.55-22.8ZM79.25-9.1L79.5-19.95 73.65-22.15 68.3-20.4 67-10.6 71.45-3.25 74.3-3.9 79.25-9.1ZM89.09-0.9L81.09-0.25 79.05-4.8 75.75-0.35 68.15-0.8 63.1-10.9 66.09-22.6 73.34-25.5 80.05-22.75 80.3-35.25 83.45-39 86.25-36.7 84.15-34.95 83.3-3.1 88.09-4 89.09-0.9ZM103.54-22.55L98.44-22.95 94.04-17.25 94.99-7.4 100.54-2.15 104.29-2.2 108.99-11.4 106.89-20.05 103.54-22.55ZM96.84-26.3L105.24-26.3 110.54-21.4 112.54-9.95 105.49 1.1 98.49 1.4 91.14-7.45 90.59-18.85 96.84-26.3ZM139.14-5.4L145.69-2.45 142.64 1.55 136.09-2.35 132.49-13.55 128.29-16.85 123.99-15.5 123.84-2.45 127.24-1.75 127.54 0.2 116.54 0 116.39-1.35 119.74-2.35 119.74-32.1 115.54-33.6 115.79-35.05 126.94-35.05 127.19-33.2 124.14-32.35 124.24-32.3 123.99-18.85 129.04-20.25 132.39-22.8 135.34-33.85 141.39-35.05 142.19-32.05 138.64-31.35 134.09-20.1 132.24-18.7 135.34-17.1 139.14-5.4ZM160.14-22.55L155.04-22.95 150.64-17.25 151.59-7.4 157.14-2.15 160.89-2.2 165.59-11.4 163.49-20.05 160.14-22.55ZM153.44-26.3L161.84-26.3 167.14-21.4 169.14-9.95 162.09 1.1 155.09 1.4 147.74-7.45 147.19-18.85 153.44-26.3ZM183.58-1.95L183.83-0.05 173.28-0.25 173.13-1.55 176.73-2.6 176.73-32.6 174.08-32.05 174.28-35.35 180.63-35.5 180.19-2.65 183.58-1.95ZM192.08-13.2L192.13-13.4 203.83-15.25 202.43-21.8 199.08-23.05 192.53-20.85 192.08-13.2ZM195.23-25.7L202.28-25.15 206.28-21.65 207.73-13.05 192.08-10.55 194.78-2.6 200.68-2.75 207.68-4.85 208.08-0.9 193.98 1.1 187.83-8 188.53-20.85 195.23-25.7ZM236.68-24.2L236.03-22.55 233.33-22.1 225.13 0.65 220.38 0.5 212.83-23.4 210.58-24.05 210.73-25.4 219.53-25.5 219.68-24.15 217.13-23.2 222.38-3.6 223.83-3.9 229.68-23.4 227.83-24.7 228.18-25.9 236.68-24.2Z" opacity="1" transform="matrix(1,0,0,1,0,0)" fill="#1ebbd7" class="wordmark-text-0" data-fill-palette-color="primary" id="text-0"></path></svg></g></svg></g></svg></g></svg></g></svg></g></svg></g></svg></g></svg></g><defs></defs></svg><rect width="395.52" height="247.2" fill="none" stroke="none" visibility="hidden"></rect></g></svg></g></svg>